<svg width="21" height="21" viewBox="0 0 21 21" fill="none" xmlns="http://www.w3.org/2000/svg">
<g clip-path="url(#clip0_245_5682)">
<path d="M4.83839 14.0998C6.81103 16.4579 9.18567 18.3145 11.896 19.6282C12.9279 20.1172 14.3079 20.6974 15.8454 20.7969C15.9407 20.801 16.0319 20.8052 16.1272 20.8052C17.1591 20.8052 17.988 20.4488 18.6635 19.7152C18.6676 19.7111 18.6759 19.7028 18.6801 19.6945C18.9204 19.4044 19.194 19.1433 19.4799 18.8657C19.6747 18.6792 19.8736 18.4844 20.0642 18.2855C20.947 17.3655 20.947 16.1968 20.056 15.3058L17.5653 12.8151C17.1426 12.3758 16.637 12.1438 16.1065 12.1438C15.5761 12.1438 15.0663 12.3758 14.6312 12.811L13.1475 14.2946C13.0108 14.2159 12.8699 14.1454 12.7373 14.0791C12.5715 13.9962 12.4182 13.9175 12.2814 13.8305C10.9304 12.9726 9.7037 11.8537 8.53088 10.4156C7.93826 9.66552 7.54042 9.03559 7.26275 8.39324C7.65231 8.04098 8.017 7.67215 8.36926 7.3116C8.49359 7.18313 8.62206 7.05466 8.75053 6.92619C9.1981 6.47861 9.43847 5.96058 9.43847 5.43427C9.43847 4.90795 9.20225 4.38993 8.75053 3.94235L7.51555 2.70737C7.3705 2.56232 7.23374 2.42142 7.09284 2.27637C6.81932 1.99457 6.53337 1.70447 6.25156 1.44339C5.82471 1.02482 5.32326 0.805176 4.7928 0.805176C4.26648 0.805176 3.76089 1.02482 3.31746 1.44753L1.76752 2.99747C1.20391 3.56108 0.884801 4.24488 0.818493 5.03642C0.739753 6.02689 0.922099 7.07952 1.39454 8.3518C2.11978 10.3203 3.21385 12.1479 4.83839 14.0998ZM1.82968 5.12345C1.87941 4.57227 2.09077 4.11226 2.48861 3.71442L4.03026 2.17277C4.27063 1.94069 4.53586 1.82051 4.7928 1.82051C5.0456 1.82051 5.30254 1.94069 5.53876 2.18106C5.81642 2.438 6.07751 2.70737 6.35931 2.99332C6.50022 3.13837 6.64526 3.28342 6.79031 3.43261L8.02529 4.66759C8.28223 4.92453 8.41485 5.18562 8.41485 5.44256C8.41485 5.6995 8.28223 5.96058 8.02529 6.21753C7.89682 6.346 7.76835 6.47861 7.63988 6.60708C7.25446 6.99664 6.89392 7.36547 6.49607 7.71773C6.48778 7.72602 6.48364 7.73017 6.47535 7.73845C6.13138 8.08242 6.18526 8.40982 6.26814 8.65847C6.27228 8.6709 6.27643 8.67919 6.28057 8.69162C6.59968 9.45831 7.04311 10.1877 7.73519 11.058C8.97846 12.5913 10.288 13.7807 11.7302 14.6966C11.9084 14.8126 12.0991 14.9038 12.2773 14.995C12.443 15.0779 12.5964 15.1566 12.7331 15.2436C12.7497 15.2519 12.7621 15.2602 12.7787 15.2685C12.9155 15.339 13.0481 15.3721 13.1807 15.3721C13.5122 15.3721 13.7277 15.1608 13.7982 15.0903L15.3481 13.5404C15.5885 13.3 15.8496 13.1715 16.1065 13.1715C16.4215 13.1715 16.6784 13.3663 16.84 13.5404L19.339 16.0352C19.8363 16.5325 19.8322 17.0712 19.3266 17.5976C19.1525 17.784 18.9702 17.9622 18.7754 18.1487C18.4853 18.4305 18.1828 18.7206 17.9093 19.048C17.4327 19.5619 16.8649 19.8023 16.1314 19.8023C16.0609 19.8023 15.9863 19.7981 15.9159 19.794C14.5566 19.707 13.2926 19.1765 12.3436 18.7248C9.76586 17.4774 7.50312 15.7078 5.62579 13.4616C4.07999 11.6009 3.03979 9.86858 2.35185 8.01197C1.925 6.87231 1.76338 5.95644 1.82968 5.12345Z" fill="#33CB33"/>
</g>
<defs>
<clipPath id="clip0_245_5682">
<rect width="20" height="20" fill="white" transform="translate(0.761719 0.805176)"/>
</clipPath>
</defs>
</svg>
