<svg width="21" height="21" viewBox="0 0 21 21" fill="none" xmlns="http://www.w3.org/2000/svg">
<path d="M19.348 14.6213C19.3149 14.5938 15.5718 11.915 14.5562 12.0906C14.068 12.1769 13.7887 12.5094 13.2293 13.1762C13.1393 13.2837 12.9224 13.5406 12.7549 13.7238C12.4014 13.6086 12.0565 13.4682 11.723 13.3038C10.0015 12.4656 8.61054 11.0747 7.77242 9.35312C7.60796 9.01964 7.4676 8.6748 7.35242 8.32125C7.53617 8.15312 7.79367 7.93625 7.90367 7.84375C8.5668 7.2875 8.8993 7.00812 8.98555 6.51937C9.16242 5.5075 6.48242 1.76125 6.45492 1.7275C6.33287 1.55441 6.17392 1.41058 5.98953 1.30639C5.80514 1.20219 5.59991 1.14024 5.38867 1.125C4.30242 1.125 1.20117 5.1475 1.20117 5.82562C1.20117 5.865 1.25805 9.8675 6.19367 14.8881C11.2087 19.8181 15.2112 19.875 15.2505 19.875C15.9287 19.875 19.9512 16.7737 19.9512 15.6875C19.9359 15.4762 19.8739 15.2709 19.7696 15.0865C19.6653 14.9021 19.5213 14.7432 19.348 14.6213ZM15.1818 18.6213C14.6355 18.5763 11.2768 18.1331 7.07742 14.0075C2.93055 9.78562 2.49867 6.4175 2.45555 5.89563C3.27478 4.60978 4.26417 3.44064 5.3968 2.42C5.4218 2.445 5.45492 2.4825 5.49742 2.53125C6.36606 3.71702 7.11435 4.98642 7.73117 6.32062C7.53058 6.52242 7.31857 6.71253 7.09617 6.89C6.75129 7.15278 6.4346 7.45063 6.15117 7.77875L5.9993 7.99125L6.0443 8.24813C6.17657 8.82108 6.37914 9.37549 6.64742 9.89875C7.6086 11.8725 9.20353 13.4672 11.1774 14.4281C11.7006 14.6968 12.255 14.8996 12.828 15.0319L13.0849 15.0769L13.2974 14.925C13.6268 14.6403 13.9259 14.3224 14.1899 13.9762C14.3855 13.7425 14.6474 13.4306 14.7462 13.3425C16.0842 13.9587 17.3568 14.7079 18.5449 15.5787C18.5968 15.6225 18.633 15.6562 18.6574 15.6781C17.6369 16.8111 16.4678 17.8007 15.1818 18.62V18.6213Z" fill="white"/>
</svg>
