<svg width="26" height="25" viewBox="0 0 26 25" fill="none" xmlns="http://www.w3.org/2000/svg">
<g clip-path="url(#clip0_245_5743)">
<path d="M19.1632 3.79346L17.7031 1.96146C17.4123 1.59926 17.0401 1.30587 16.6147 1.10351C16.1893 0.901148 15.7219 0.79512 15.2479 0.793457L11.2551 0.793457C10.7812 0.79512 10.3138 0.901148 9.88839 1.10351C9.46301 1.30587 9.0908 1.59926 8.79994 1.96146L7.33984 3.79346H19.1632Z" fill="#33CB33"/>
<path d="M13.2505 18.7935C15.5333 18.7935 17.3839 17.0026 17.3839 14.7935C17.3839 12.5843 15.5333 10.7935 13.2505 10.7935C10.9677 10.7935 9.11719 12.5843 9.11719 14.7935C9.11719 17.0026 10.9677 18.7935 13.2505 18.7935Z" fill="#33CB33"/>
<path d="M20.4849 5.79346H6.01823C4.64845 5.79504 3.33524 6.32234 2.36666 7.25968C1.39807 8.19701 0.853203 9.46786 0.851563 10.7935L0.851562 19.7935C0.853203 21.1191 1.39807 22.3899 2.36666 23.3272C3.33524 24.2646 4.64845 24.7919 6.01823 24.7935H20.4849C21.8547 24.7919 23.1679 24.2646 24.1365 23.3272C25.1051 22.3899 25.6499 21.1191 25.6516 19.7935V10.7935C25.6499 9.46786 25.1051 8.19701 24.1365 7.25968C23.1679 6.32234 21.8547 5.79504 20.4849 5.79346ZM13.2516 20.7935C12.0253 20.7935 10.8266 20.4416 9.80703 19.7823C8.78744 19.123 7.99277 18.1859 7.52351 17.0896C7.05425 15.9932 6.93147 14.7868 7.17069 13.6229C7.40992 12.459 8.00041 11.3899 8.8675 10.5508C9.73459 9.7117 10.8393 9.14026 12.042 8.90875C13.2447 8.67723 14.4913 8.79605 15.6242 9.25018C16.7571 9.70431 17.7254 10.4733 18.4067 11.46C19.0879 12.4467 19.4516 13.6068 19.4516 14.7935C19.4499 16.3843 18.7962 17.9095 17.6338 19.0343C16.4714 20.1592 14.8954 20.7919 13.2516 20.7935Z" fill="#33CB33"/>
</g>
<defs>
<clipPath id="clip0_245_5743">
<rect width="24.8" height="24" fill="white" transform="translate(0.851562 0.793457)"/>
</clipPath>
</defs>
</svg>
