<svg width="21" height="21" viewBox="0 0 21 21" fill="none" xmlns="http://www.w3.org/2000/svg">
<g clip-path="url(#clip0_245_5686)">
<path d="M18.9805 3.52393H2.49609C1.52883 3.52393 0.738281 4.311 0.738281 5.28174V15.8286C0.738281 16.7997 1.52934 17.5864 2.49609 17.5864H18.9805C19.9477 17.5864 20.7383 16.7994 20.7383 15.8286V5.28174C20.7383 4.31076 19.9473 3.52393 18.9805 3.52393ZM18.7105 4.6958C18.1422 5.266 11.4666 11.9634 11.1923 12.2385C10.9633 12.4683 10.5134 12.4685 10.2842 12.2385L2.76602 4.6958H18.7105ZM1.91016 15.6132V5.49717L6.95176 10.5552L1.91016 15.6132ZM2.76602 16.4146L7.77906 11.3852L9.45426 13.0658C10.1407 13.7546 11.3361 13.7543 12.0223 13.0658L13.6975 11.3852L18.7105 16.4146H2.76602ZM19.5664 15.6132L14.5248 10.5552L19.5664 5.49717V15.6132Z" fill="#33CB33"/>
</g>
<defs>
<clipPath id="clip0_245_5686">
<rect width="20" height="20" fill="white" transform="translate(0.738281 0.555176)"/>
</clipPath>
</defs>
</svg>
