<svg width="21" height="21" viewBox="0 0 21 21" fill="none" xmlns="http://www.w3.org/2000/svg">
<g clip-path="url(#clip0_245_6156)">
<path d="M18.8184 3.46875H2.33398C1.36277 3.46875 0.576172 4.26023 0.576172 5.22656V15.7734C0.576172 16.7455 1.36855 17.5312 2.33398 17.5312H18.8184C19.7814 17.5312 20.5762 16.7488 20.5762 15.7734V5.22656C20.5762 4.26195 19.7927 3.46875 18.8184 3.46875ZM18.5722 4.64062C18.213 4.99785 12.0325 11.1458 11.8191 11.3581C11.4871 11.6901 11.0457 11.8729 10.5762 11.8729C10.1066 11.8729 9.66523 11.6901 9.33211 11.357C9.18859 11.2142 3.07629 5.13414 2.58016 4.64062H18.5722ZM1.74805 15.5349V5.46582L6.81203 10.5031L1.74805 15.5349ZM2.5809 16.3594L7.64289 11.3296L8.50457 12.1867C9.05793 12.7401 9.79363 13.0448 10.5762 13.0448C11.3587 13.0448 12.0944 12.7401 12.6467 12.1878L13.5095 11.3296L18.5714 16.3594H2.5809ZM19.4043 15.5349L14.3403 10.5031L19.4043 5.46582V15.5349Z" fill="white"/>
</g>
<defs>
<clipPath id="clip0_245_6156">
<rect width="20" height="20" fill="white" transform="translate(0.576172 0.5)"/>
</clipPath>
</defs>
</svg>
