<svg xmlns="http://www.w3.org/2000/svg" width="22" height="22" viewBox="0 0 22 22" fill="none">
                                    <g clipPath="url(#clip0_481_208)">
                                        <path
                                            d="M14.7962 11.0628L12.0918 13.7679V6.8208C12.0918 6.45855 11.7978 6.16455 11.4355 6.16455C11.0733 6.16455 10.7793 6.45855 10.7793 6.8208V13.7679L8.0749 11.0635C7.8183 10.8069 7.4029 10.8069 7.14695 11.0635C6.89035 11.3201 6.89035 11.7355 7.14695 11.9914L10.8594 15.7038C11.0169 15.8613 11.2321 15.9098 11.4362 15.8737C11.6397 15.9098 11.8556 15.8606 12.0131 15.7038L15.7255 11.9914C15.9821 11.7348 15.9821 11.3194 15.7255 11.0635C15.4682 10.8069 15.0528 10.8069 14.7962 11.0628ZM11.4355 0.914551C5.63694 0.914551 0.935547 5.61526 0.935547 11.4146C0.935547 17.2138 5.63694 21.9146 11.4355 21.9146C17.2342 21.9146 21.9355 17.2132 21.9355 11.4146C21.9355 5.61594 17.2348 0.914551 11.4355 0.914551ZM11.4355 20.6021C6.3614 20.6021 2.24805 16.4887 2.24805 11.4146C2.24805 6.34041 6.3614 2.22705 11.4355 2.22705C16.5097 2.22705 20.623 6.34041 20.623 11.4146C20.623 16.4887 16.5097 20.6021 11.4355 20.6021Z"
                                            fill="#EC4449" />
                                    </g>
                                    <defs>
                                        <clipPath id="clip0_481_208">
                                            <rect width="21" height="21" fill="white"
                                                transform="translate(0.935547 0.914551)" />
                                        </clipPath>
                                    </defs>
                                </svg>