 <svg xmlns="http://www.w3.org/2000/svg" width="22" height="22" viewBox="0 0 22 22" fill="none">
                                    <g clipPath="url(#clip0_481_220)">
                                        <path
                                            d="M14.8138 11.7663L12.1094 9.06125V16.0083C12.1094 16.3706 11.8154 16.6646 11.4531 16.6646C11.0909 16.6646 10.7969 16.3706 10.7969 16.0083V9.06125L8.09247 11.7656C7.83588 12.0222 7.42047 12.0222 7.16453 11.7656C6.90793 11.5091 6.90793 11.0936 7.16453 10.8377L10.082 7.12533C10.2395 6.96783 10.4548 6.91928 10.6589 6.95538C10.8623 6.91928 11.0782 6.96849 11.2357 7.12533L14.9481 10.8377C15.2047 11.0943 15.2047 11.5097 14.9481 11.7656C14.6909 12.0222 14.2755 12.0222 14.0189 11.7663ZM10.6582 21.9146C4.8596 21.9146 0.158203 17.2138 0.158203 11.4145C0.158203 5.61526 4.8596 0.914549 10.6582 0.914549C16.4568 0.914549 21.1582 5.61594 21.1582 11.4145C21.1582 17.2132 16.4575 21.9146 10.6582 21.9146ZM10.6582 2.22705C5.58406 2.22705 1.4707 6.34041 1.4707 11.4145C1.4707 16.4887 5.58406 20.6021 10.6582 20.6021C15.7323 20.6021 19.8457 16.4887 19.8457 11.4145C19.8457 6.34041 15.7323 2.22705 10.6582 2.22705Z"
                                            fill="black" />
                                    </g>
                                    <defs>
                                        <clipPath id="clip0_481_220">
                                            <rect width="21" height="21" fill="white"
                                                transform="matrix(1 0 0 -1 0.158203 21.9146)" />
                                        </clipPath>
                                    </defs>
                                </svg>