<svg width="158" height="54" viewBox="0 0 158 54" fill="none" xmlns="http://www.w3.org/2000/svg">
<path d="M153.006 2.56976L141.381 8.35242L146.431 11.6997L139.857 20.9771L132.36 31.5595L128.395 37.1237L126.899 39.2315L116.945 53.2322H124.857L130.864 44.8012L132.36 42.6934L136.313 37.1237L147.775 20.9771L151.821 15.2709L156.386 18.3014L157.167 5.70955L157.5 0.336426L153.006 2.56976Z" fill="#298FD5"/>
<path d="M0.5 53.229H6.9412V39.7956H19.3638V33.3539H6.9412V27.4183H21.9859V20.9788H0.5V53.229Z" fill="#298FD5"/>
<path d="M41.9013 20.3765C32.7004 20.3765 25.2031 27.8792 25.2031 37.0801C25.2031 46.281 32.7004 53.7837 41.9013 53.7837C51.1022 53.7837 58.6049 46.281 58.6049 37.0801C58.6049 27.8792 51.1022 20.3765 41.9013 20.3765ZM41.9013 47.1547C36.3371 47.1547 31.8267 42.6498 31.8267 37.0801C31.8267 31.5104 36.3371 27.0055 41.9013 27.0055C47.471 27.0055 51.9759 31.5104 51.9759 37.0801C51.9759 42.6498 47.471 47.1547 41.9013 47.1547Z" fill="#298FD5"/>
<path d="M85.4923 30.6421C85.4923 25.3017 81.1676 20.9333 75.8327 20.9333H63.6831V53.183H70.1265V40.3017H73.3482L79.3766 53.2267H86.2295L79.8352 39.428C83.1934 37.91 85.4923 34.5518 85.4923 30.6421ZM75.8327 33.8583H70.1265V27.3713H75.8327C77.6237 27.3713 79.0544 28.8456 79.0544 30.6421C79.0544 32.4331 77.6237 33.8583 75.8327 33.8583Z" fill="#298FD5"/>
<path d="M137.812 39.2332L133.857 44.7996L139.855 53.2306H147.773L137.812 39.2332Z" fill="#298FD5"/>
<path d="M116.939 20.9771L121.51 27.415L122.242 28.447L126.905 35.016L130.858 29.4463L124.857 20.9771H116.939Z" fill="#298FD5"/>
<path d="M91.0762 20.9797V27.4248V53.2305H112.422V46.7849H97.513V39.7944H109.932V33.3576H97.513V27.4248H112.422V20.9797H97.513H91.0762Z" fill="#298FD5"/>
</svg>
