<svg width="115" height="40" viewBox="0 0 115 40" fill="none" xmlns="http://www.w3.org/2000/svg">
<path d="M111.223 1.90514L102.744 6.12243L106.428 8.5636L101.633 15.3296L96.1655 23.0473L93.2743 27.1053L92.1831 28.6425L84.9233 38.8532H90.6937L95.0743 32.7045L96.1655 31.1673L99.0487 27.1053L107.408 15.3296L110.358 11.168L113.688 13.3782L114.257 4.19498L114.5 0.276367L111.223 1.90514Z" fill="#33CB33"/>
<path d="M0 38.8509H4.69756V29.0539H13.7574V24.356H4.69756V20.0272H15.6697V15.3308H0V38.8509Z" fill="#33CB33"/>
<path d="M30.1941 14.8916C23.4839 14.8916 18.0161 20.3633 18.0161 27.0736C18.0161 33.7838 23.4839 39.2555 30.1941 39.2555C36.9043 39.2555 42.376 33.7838 42.376 27.0736C42.376 20.3633 36.9043 14.8916 30.1941 14.8916ZM30.1941 34.421C26.1361 34.421 22.8467 31.1355 22.8467 27.0736C22.8467 23.0116 26.1361 19.7262 30.1941 19.7262C34.2561 19.7262 37.5415 23.0116 37.5415 27.0736C37.5415 31.1355 34.2561 34.421 30.1941 34.421Z" fill="#33CB33"/>
<path d="M61.985 22.3784C61.985 18.4837 58.831 15.2979 54.9403 15.2979H46.0796V38.8175H50.7787V29.4232H53.1283L57.5248 38.8494H62.5226L57.8593 28.786C60.3085 27.6789 61.985 25.2298 61.985 22.3784ZM54.9403 24.724H50.7787V19.993H54.9403C56.2465 19.993 57.2899 21.0682 57.2899 22.3784C57.2899 23.6846 56.2465 24.724 54.9403 24.724Z" fill="#33CB33"/>
<path d="M100.142 28.6438L97.2573 32.7034L101.632 38.8521H107.406L100.142 28.6438Z" fill="#33CB33"/>
<path d="M84.9194 15.3296L88.2526 20.0248L88.7863 20.7774L92.1872 25.5682L95.0704 21.5062L90.6938 15.3296H84.9194Z" fill="#33CB33"/>
<path d="M66.0571 15.3315V20.0319V38.852H81.6245V34.1512H70.7515V29.0531H79.8085V24.3587H70.7515V20.0319H81.6245V15.3315H70.7515H66.0571Z" fill="#33CB33"/>
</svg>
