<svg width="24" height="25" viewBox="0 0 24 25" fill="none" xmlns="http://www.w3.org/2000/svg">
<path fill-rule="evenodd" clip-rule="evenodd" d="M21.7921 6.9012C21.7821 7.3152 21.4391 7.6432 21.0251 7.6342C20.6111 7.6242 20.2831 7.2812 20.2921 6.8672L20.3331 5.0612L18.5281 5.0202C18.1141 5.0102 17.7861 4.6672 17.7951 4.2532C17.8051 3.8392 18.1481 3.5112 18.5621 3.5202L21.1181 3.5792C21.5321 3.5882 21.8601 3.9312 21.8501 4.3452L21.7921 6.9012Z" fill="#5B6166"/>
<path fill-rule="evenodd" clip-rule="evenodd" d="M5.827 9.84601V21.987C5.827 22.685 5.262 23.25 4.564 23.25H2.513C1.815 23.25 1.25 22.685 1.25 21.987V9.84601C1.25 9.14901 1.815 8.58301 2.513 8.58301H4.564C5.262 8.58301 5.827 9.14901 5.827 9.84601ZM2.75 10.083V21.75H4.327V10.083H2.75Z" fill="#5B6166"/>
<path fill-rule="evenodd" clip-rule="evenodd" d="M17.1092 16.0003V21.9873C17.1092 22.3223 16.9762 22.6433 16.7392 22.8803C16.5022 23.1173 16.1812 23.2503 15.8462 23.2503H13.7952C13.4602 23.2503 13.1392 23.1173 12.9022 22.8803C12.6652 22.6433 12.5322 22.3223 12.5322 21.9873V16.0003C12.5322 15.6653 12.6652 15.3443 12.9022 15.1073C13.1392 14.8703 13.4602 14.7373 13.7952 14.7373H15.8462C16.1812 14.7373 16.5022 14.8703 16.7392 15.1073C16.9762 15.3443 17.1092 15.6653 17.1092 16.0003ZM14.0322 16.2373V21.7503H15.6092V16.2373H14.0322Z" fill="#5B6166"/>
<path fill-rule="evenodd" clip-rule="evenodd" d="M11.4681 12.9232V21.9872C11.4681 22.6852 10.9031 23.2502 10.2051 23.2502H8.15411C7.45611 23.2502 6.89111 22.6852 6.89111 21.9872V12.9232C6.89111 12.5882 7.02411 12.2672 7.26111 12.0302C7.49811 11.7932 7.81911 11.6602 8.15411 11.6602H10.2051C10.9031 11.6602 11.4681 12.2262 11.4681 12.9232ZM8.39111 13.1602V21.7502H9.96811V13.1602H8.39111Z" fill="#5B6166"/>
<path fill-rule="evenodd" clip-rule="evenodd" d="M22.7499 12.9232V21.9872C22.7499 22.6852 22.1849 23.2502 21.4869 23.2502H19.4359C18.7379 23.2502 18.1729 22.6852 18.1729 21.9872V12.9232C18.1729 12.5882 18.3059 12.2672 18.5429 12.0302C18.7799 11.7932 19.1009 11.6602 19.4359 11.6602H21.4869C22.1849 11.6602 22.7499 12.2262 22.7499 12.9232ZM19.6729 13.1602V21.7502H21.2499V13.1602H19.6729Z" fill="#5B6166"/>
<path fill-rule="evenodd" clip-rule="evenodd" d="M2.44985 3.1002C2.11785 2.8522 2.05085 2.3812 2.29985 2.0502C2.54785 1.7192 3.01785 1.6522 3.34985 1.9002L9.30285 6.3652H12.1298C12.3608 6.3652 12.5778 6.4712 12.7198 6.6522L15.0068 9.5632L20.3068 4.0322C20.5928 3.7332 21.0678 3.7232 21.3668 4.0102C21.6658 4.2962 21.6758 4.7712 21.3898 5.0702L15.4918 11.2242C15.3418 11.3812 15.1308 11.4652 14.9138 11.4542C14.6968 11.4442 14.4948 11.3392 14.3608 11.1682L11.7658 7.8652H9.05285C8.89085 7.8652 8.73285 7.8132 8.60285 7.7152L2.44985 3.1002Z" fill="#5B6166"/>
</svg>
