<svg width="24" height="24" viewBox="0 0 24 24" fill="none" xmlns="http://www.w3.org/2000/svg">
<g clip-path="url(#clip0_245_3501)">
<mask id="mask0_245_3501" style="mask-type:luminance" maskUnits="userSpaceOnUse" x="0" y="0" width="24" height="24">
<path d="M0 1.90735e-06H24V24H0V1.90735e-06Z" fill="white"/>
</mask>
<g mask="url(#mask0_245_3501)">
<path d="M22.5937 11.1565C22.5937 12.5804 22.2701 13.9271 21.6928 15.1288L14.1094 10.7505V1.9955C17.2122 2.2303 19.8853 4.00621 21.3644 6.56259C22.146 7.9135 22.5937 9.48159 22.5937 11.1565ZM24 11.1565C24 9.22758 23.4836 7.4174 22.5816 5.85833C20.7508 2.69422 17.328 0.562712 13.4062 0.562712C13.0179 0.562712 12.7031 0.877511 12.7031 1.26584V11.1565C12.7031 11.4077 12.8371 11.6398 13.0547 11.7654L21.6214 16.7113C21.9575 16.9054 22.3872 16.7905 22.5816 16.4546C23.4836 14.8955 24 13.0853 24 11.1565Z" fill="#5B6166"/>
<path d="M10.5937 23.4375C14.5155 23.4375 17.9383 21.306 19.7691 18.1419C19.8625 17.9804 19.8879 17.7884 19.8397 17.6081C19.7915 17.4279 19.6736 17.2742 19.5121 17.1809L11.2969 12.4378V2.95311C11.2969 2.56479 10.9821 2.24999 10.5937 2.24999C6.67198 2.24999 3.24922 4.38151 1.41844 7.5456H1.4184C0.51636 9.10468 0 10.9149 0 12.8438C1.93743e-06 14.7726 0.516395 16.5828 1.41844 18.1419C3.24922 21.306 6.67198 23.4375 10.5937 23.4375ZM1.40625 12.8438C1.40625 11.1689 1.85401 9.60079 2.63562 8.24986L2.67311 8.18563C4.15967 5.66376 6.81382 3.9156 9.89061 3.68278V12.8438C9.89062 13.095 10.0246 13.3271 10.2422 13.4527L18.176 18.0333C16.5196 20.4487 13.7412 22.0312 10.5937 22.0312C7.19429 22.0312 4.2254 20.1852 2.63562 17.4376C1.85401 16.0867 1.40625 14.5186 1.40625 12.8438Z" fill="#5B6166"/>
</g>
</g>
<defs>
<clipPath id="clip0_245_3501">
<rect width="24" height="24" fill="white"/>
</clipPath>
</defs>
</svg>
