<svg width="64" height="64" viewBox="0 0 64 64" fill="none" xmlns="http://www.w3.org/2000/svg">
<path d="M24.5335 13.8667C23.9445 13.8667 23.4669 14.3443 23.4669 14.9334V20.2667H20.2669C19.6778 20.2667 19.2002 20.7443 19.2002 21.3334V49.0667C19.2002 49.6558 19.6778 50.1334 20.2669 50.1334H23.4669V54.4C23.4669 54.9891 23.9445 55.4667 24.5335 55.4667C25.1226 55.4667 25.6002 54.9891 25.6002 54.4V50.1334H28.8002C29.3893 50.1334 29.8669 49.6558 29.8669 49.0667V21.3334C29.8669 20.7443 29.3893 20.2667 28.8002 20.2667H25.6002V14.9334C25.6002 14.3443 25.1226 13.8667 24.5335 13.8667ZM27.7335 22.4V48H21.3335V22.4H27.7335Z" fill="#33CB33"/>
<path d="M39.4671 9.6001C38.8781 9.6001 38.4005 10.0777 38.4005 10.6668V16.0001H35.2005C34.6114 16.0001 34.1338 16.4777 34.1338 17.0668V44.8001C34.1338 45.3892 34.6114 45.8668 35.2005 45.8668H38.4005V50.1334C38.4005 50.7225 38.8781 51.2001 39.4671 51.2001C40.0562 51.2001 40.5338 50.7225 40.5338 50.1334V45.8668H43.7338C44.3229 45.8668 44.8005 45.3892 44.8005 44.8001V17.0668C44.8005 16.4777 44.3229 16.0001 43.7338 16.0001H40.5338V10.6668C40.5338 10.0777 40.0562 9.6001 39.4671 9.6001ZM42.6671 18.1334V43.7334H36.2671V18.1334H42.6671Z" fill="#33CB33"/>
<path d="M54.3997 22.3999C53.8107 22.3999 53.3331 22.8775 53.3331 23.4666V28.7999H50.1331C49.544 28.7999 49.0664 29.2775 49.0664 29.8666V57.5999C49.0664 58.189 49.544 58.6666 50.1331 58.6666H53.3331V62.9332C53.3331 63.5223 53.8107 63.9999 54.3997 63.9999C54.9888 63.9999 55.4664 63.5223 55.4664 62.9332V58.6666H58.6664C59.2555 58.6666 59.7331 58.189 59.7331 57.5999V29.8666C59.7331 29.2775 59.2555 28.7999 58.6664 28.7999H55.4664V23.4666C55.4664 22.8775 54.9888 22.3999 54.3997 22.3999ZM57.5997 30.9332V56.5332H51.1997V30.9332H57.5997Z" fill="#33CB33"/>
<path d="M9.59994 0C9.01087 0 8.53327 0.477604 8.53327 1.06667V6.4H5.33327C4.74421 6.4 4.2666 6.8776 4.2666 7.46667V35.2C4.2666 35.7891 4.74421 36.2667 5.33327 36.2667H8.53327V40.5333C8.53327 41.1224 9.01087 41.6 9.59994 41.6C10.189 41.6 10.6666 41.1224 10.6666 40.5333V36.2667H13.8666C14.4557 36.2667 14.9333 35.7891 14.9333 35.2V7.46667C14.9333 6.8776 14.4557 6.4 13.8666 6.4H10.6666V1.06667C10.6666 0.477604 10.189 0 9.59994 0ZM12.7999 8.53333V34.1333H6.39994V8.53333H12.7999Z" fill="#33CB33"/>
</svg>
