<svg width="65" height="64" viewBox="0 0 65 64" fill="none" xmlns="http://www.w3.org/2000/svg">
<path d="M32.1874 45.66C19.5974 45.66 9.35742 35.42 9.35742 22.83C9.35742 10.24 19.5974 0 32.1874 0C44.7774 0 55.0174 10.24 55.0174 22.83C55.0174 35.42 44.7774 45.66 32.1874 45.66ZM32.1874 1.94C20.6674 1.94 11.2974 11.31 11.2974 22.83C11.2974 34.35 20.6674 43.72 32.1874 43.72C43.7074 43.72 53.0774 34.35 53.0774 22.83C53.0774 11.31 43.7074 1.94 32.1874 1.94Z" fill="#33CB33"/>
<path d="M40.6174 36.7701C40.4674 36.7701 40.3074 36.7301 40.1674 36.6601L32.1874 32.4701L24.2074 36.6601C23.8874 36.8301 23.4874 36.8001 23.1874 36.5901C22.8874 36.3701 22.7374 36.0101 22.7974 35.6401L24.3174 26.7601L17.8674 20.4701C17.6074 20.2101 17.5074 19.8301 17.6174 19.4801C17.7274 19.1301 18.0374 18.8701 18.3974 18.8201L27.3174 17.5201L31.3074 9.44007C31.6374 8.78007 32.7174 8.78007 33.0474 9.44007L37.0374 17.5201L45.9574 18.8201C46.3274 18.8701 46.6274 19.1301 46.7374 19.4801C46.8474 19.8301 46.7574 20.2201 46.4874 20.4701L40.0374 26.7601L41.5574 35.6401C41.6374 36.0001 41.4874 36.3701 41.1874 36.5901C41.0174 36.7101 40.8174 36.7701 40.6174 36.7701ZM32.1874 30.4001C32.3474 30.4001 32.4974 30.4401 32.6374 30.5101L39.3274 34.0301L38.0474 26.5801C37.9974 26.2701 38.0974 25.9401 38.3274 25.7201L43.7374 20.4401L36.2574 19.3501C35.9374 19.3001 35.6674 19.1101 35.5274 18.8201L32.1874 12.0501L28.8474 18.8301C28.7074 19.1201 28.4374 19.3101 28.1174 19.3601L20.6374 20.4501L26.0474 25.7301C26.2774 25.9501 26.3774 26.2701 26.3274 26.5901L25.0474 34.0401L31.7374 30.5201C31.8774 30.4401 32.0274 30.4001 32.1874 30.4001Z" fill="#33CB33"/>
<path d="M24.4678 64C24.4478 64 24.4278 64 24.4078 64C24.0078 63.98 23.6578 63.71 23.5378 63.32L20.9478 54.96L13.0778 58.48C12.7078 58.65 12.2778 58.56 11.9878 58.27C11.7078 57.98 11.6278 57.55 11.7978 57.18L19.4878 40.8C19.7178 40.32 20.2878 40.11 20.7778 40.33C21.2578 40.56 21.4678 41.13 21.2478 41.62L14.6778 55.64L21.1578 52.74C21.4078 52.63 21.6978 52.63 21.9578 52.74C22.2078 52.85 22.4078 53.07 22.4878 53.34L24.6278 60.26L31.6678 44.29C31.8878 43.8 32.4578 43.57 32.9478 43.79C33.4378 44.01 33.6578 44.58 33.4478 45.07L25.3678 63.42C25.1978 63.77 24.8478 64 24.4678 64Z" fill="#33CB33"/>
<path d="M40.0173 62.6199C39.6173 62.6199 39.2573 62.3699 39.1073 61.9999L32.6173 44.9999C32.4273 44.4999 32.6773 43.9399 33.1773 43.7499C33.6773 43.5599 34.2373 43.8099 34.4273 44.3099L39.9973 58.8899L42.3373 52.5799C42.4273 52.3299 42.6173 52.1399 42.8573 52.0299C43.0973 51.9199 43.3673 51.9199 43.6073 52.0199L49.9173 54.5499L44.2673 40.7799C44.0673 40.2799 44.2973 39.7199 44.7973 39.5099C45.2873 39.3099 45.8573 39.5399 46.0673 40.0399L52.5873 55.9299C52.7373 56.2899 52.6573 56.6999 52.3773 56.9799C52.1073 57.2599 51.6873 57.3399 51.3273 57.1999L43.8073 54.1899L40.9273 61.9799C40.7873 62.3599 40.4273 62.6099 40.0173 62.6199Z" fill="#33CB33"/>
</svg>
