<svg width="14" height="14" viewBox="0 0 14 14" fill="none" xmlns="http://www.w3.org/2000/svg">
<g clip-path="url(#clip0_245_5721)">
<path d="M6.9987 4.43848C6.57017 4.43848 6.15127 4.56555 5.79496 4.80363C5.43866 5.0417 5.16095 5.38009 4.99696 5.776C4.83297 6.1719 4.79006 6.60755 4.87366 7.02784C4.95727 7.44813 5.16362 7.83419 5.46663 8.13721C5.76965 8.44022 6.15571 8.64658 6.576 8.73018C6.9963 8.81378 7.43194 8.77087 7.82785 8.60688C8.22375 8.44289 8.56214 8.16519 8.80022 7.80888C9.03829 7.45257 9.16537 7.03367 9.16537 6.60514C9.16537 6.03051 8.93709 5.47941 8.53076 5.07308C8.12444 4.66675 7.57334 4.43848 6.9987 4.43848ZM6.9987 7.68848C6.78444 7.68848 6.57498 7.62494 6.39683 7.5059C6.21868 7.38686 6.07982 7.21767 5.99783 7.01972C5.91583 6.82176 5.89438 6.60394 5.93618 6.3938C5.97798 6.18365 6.08116 5.99062 6.23267 5.83911C6.38417 5.6876 6.57721 5.58443 6.78735 5.54263C6.9975 5.50083 7.21532 5.52228 7.41327 5.60427C7.61123 5.68627 7.78042 5.82512 7.89946 6.00328C8.0185 6.18143 8.08203 6.39088 8.08203 6.60514C8.08203 6.89246 7.9679 7.16801 7.76473 7.37118C7.56157 7.57434 7.28602 7.68848 6.9987 7.68848Z" fill="#33CB33"/>
<path d="M12.0348 7.63439L11.7943 7.49572C11.9026 6.90663 11.9026 6.30274 11.7943 5.71364L12.0348 5.57497C12.2197 5.46828 12.3819 5.32619 12.5119 5.15684C12.6419 4.98749 12.7373 4.79418 12.7927 4.58796C12.848 4.38174 12.8622 4.16663 12.8344 3.95494C12.8066 3.74324 12.7373 3.53909 12.6306 3.35414C12.5239 3.1692 12.3818 3.00708 12.2125 2.87704C12.0431 2.74701 11.8498 2.6516 11.6436 2.59628C11.4374 2.54095 11.2223 2.52678 11.0106 2.55458C10.7989 2.58238 10.5947 2.65161 10.4098 2.75831L10.1688 2.89752C9.7135 2.50856 9.19032 2.20703 8.62554 2.0081V1.73022C8.62554 1.29925 8.45434 0.885923 8.14959 0.581176C7.84484 0.276429 7.43152 0.105225 7.00054 0.105225C6.56957 0.105225 6.15624 0.276429 5.85149 0.581176C5.54675 0.885923 5.37554 1.29925 5.37554 1.73022V2.0081C4.81079 2.20774 4.28779 2.51001 3.83288 2.89968L3.59075 2.75939C3.21724 2.5439 2.77342 2.48562 2.35693 2.59736C1.94045 2.7091 1.58541 2.98171 1.36992 3.35522C1.15443 3.72874 1.09614 4.17256 1.20788 4.58904C1.31962 5.00553 1.59224 5.36057 1.96575 5.57606L2.20625 5.71473C2.09798 6.30382 2.09798 6.90771 2.20625 7.49681L1.96575 7.63548C1.59224 7.85096 1.31962 8.206 1.20788 8.62249C1.09614 9.03898 1.15443 9.4828 1.36992 9.85631C1.58541 10.2298 1.94045 10.5024 2.35693 10.6142C2.77342 10.7259 3.21724 10.6676 3.59075 10.4521L3.83179 10.3129C4.28721 10.702 4.81057 11.0035 5.37554 11.2023V11.4802C5.37554 11.9112 5.54675 12.3245 5.85149 12.6293C6.15624 12.934 6.56957 13.1052 7.00054 13.1052C7.43152 13.1052 7.84484 12.934 8.14959 12.6293C8.45434 12.3245 8.62554 11.9112 8.62554 11.4802V11.2023C9.19029 11.0027 9.71329 10.7004 10.1682 10.3108L10.4103 10.4505C10.7838 10.666 11.2277 10.7243 11.6442 10.6125C12.0606 10.5008 12.4157 10.2282 12.6312 9.85468C12.8467 9.48117 12.9049 9.03735 12.7932 8.62087C12.6815 8.20438 12.4088 7.84934 12.0353 7.63385L12.0348 7.63439ZM10.6546 5.58906C10.8381 6.25372 10.8381 6.95565 10.6546 7.62031C10.6226 7.73599 10.6299 7.85904 10.6754 7.97012C10.7209 8.0812 10.802 8.17403 10.906 8.23402L11.4931 8.5731C11.6176 8.64493 11.7085 8.76327 11.7457 8.90208C11.7829 9.04089 11.7635 9.18881 11.6916 9.31329C11.6198 9.43777 11.5015 9.52862 11.3627 9.56585C11.2239 9.60308 11.0759 9.58364 10.9515 9.51181L10.3632 9.17164C10.2592 9.11137 10.138 9.08745 10.0188 9.10363C9.89968 9.11981 9.7893 9.17518 9.70508 9.26102C9.22295 9.75321 8.61556 10.1044 7.94846 10.2766C7.83202 10.3066 7.72885 10.3744 7.6552 10.4694C7.58155 10.5645 7.54161 10.6813 7.54167 10.8015V11.4802C7.54167 11.6239 7.4846 11.7617 7.38302 11.8632C7.28143 11.9648 7.14366 12.0219 7 12.0219C6.85634 12.0219 6.71857 11.9648 6.61698 11.8632C6.5154 11.7617 6.45833 11.6239 6.45833 11.4802V10.8021C6.45839 10.6818 6.41845 10.565 6.3448 10.47C6.27115 10.3749 6.16798 10.3071 6.05154 10.2772C5.3844 10.1042 4.77718 9.75229 4.29546 9.25939C4.21124 9.17356 4.10086 9.11818 3.9817 9.102C3.86254 9.08582 3.74139 9.10975 3.63733 9.17002L3.05017 9.50964C2.98854 9.54577 2.92038 9.56935 2.8496 9.57903C2.77883 9.58871 2.70683 9.58429 2.63777 9.56603C2.56871 9.54777 2.50394 9.51603 2.44719 9.47264C2.39045 9.42925 2.34285 9.37506 2.30713 9.31319C2.27141 9.25133 2.24828 9.18301 2.23907 9.11217C2.22987 9.04133 2.23476 8.96937 2.25348 8.90043C2.27219 8.83149 2.30436 8.76694 2.34813 8.71048C2.3919 8.65402 2.4464 8.60678 2.5085 8.57148L3.09567 8.23239C3.19964 8.1724 3.28074 8.07958 3.32623 7.9685C3.37172 7.85741 3.37903 7.73437 3.347 7.61868C3.16357 6.95402 3.16357 6.25209 3.347 5.58743C3.37845 5.47199 3.3708 5.34939 3.32523 5.23876C3.27967 5.12813 3.19875 5.03569 3.09513 4.97589L2.50796 4.63681C2.38348 4.56498 2.29263 4.44664 2.2554 4.30783C2.21817 4.16902 2.23761 4.0211 2.30944 3.89662C2.38127 3.77214 2.4996 3.68129 2.63842 3.64406C2.77723 3.60683 2.92514 3.62627 3.04963 3.6981L3.63788 4.03827C3.74165 4.09867 3.86255 4.12288 3.98158 4.1071C4.10061 4.09131 4.21102 4.03642 4.29546 3.95106C4.77759 3.45887 5.38498 3.10769 6.05208 2.93543C6.16888 2.90541 6.27232 2.83726 6.34601 2.74179C6.4197 2.64632 6.45942 2.52899 6.45888 2.40839V1.73022C6.45888 1.58657 6.51594 1.44879 6.61753 1.34721C6.71911 1.24563 6.85688 1.18856 7.00054 1.18856C7.1442 1.18856 7.28198 1.24563 7.38356 1.34721C7.48514 1.44879 7.54221 1.58657 7.54221 1.73022V2.40839C7.54215 2.52862 7.58209 2.64545 7.65574 2.74048C7.72939 2.83551 7.83256 2.90333 7.949 2.93327C8.61634 3.10614 9.22376 3.45808 9.70563 3.95106C9.78984 4.03689 9.90023 4.09227 10.0194 4.10845C10.1385 4.12463 10.2597 4.1007 10.3638 4.04043L10.9509 3.70081C11.0125 3.66468 11.0807 3.6411 11.1515 3.63142C11.2223 3.62174 11.2943 3.62616 11.3633 3.64442C11.4324 3.66268 11.4971 3.69442 11.5539 3.73781C11.6106 3.7812 11.6582 3.83539 11.694 3.89726C11.7297 3.95912 11.7528 4.02744 11.762 4.09828C11.7712 4.16912 11.7663 4.24108 11.7476 4.31002C11.7289 4.37896 11.6967 4.44351 11.653 4.49997C11.6092 4.55643 11.5547 4.60367 11.4926 4.63897L10.9054 4.97806C10.802 5.03802 10.7213 5.13052 10.6759 5.24114C10.6306 5.35176 10.6231 5.47428 10.6546 5.5896V5.58906Z" fill="#33CB33"/>
</g>
<defs>
<clipPath id="clip0_245_5721">
<rect width="13" height="13" fill="white" transform="translate(0.5 0.105225)"/>
</clipPath>
</defs>
</svg>
