<svg width="24" height="25" viewBox="0 0 24 25" fill="none" xmlns="http://www.w3.org/2000/svg">
<g clip-path="url(#clip0_245_3488)">
<mask id="mask0_245_3488" style="mask-type:luminance" maskUnits="userSpaceOnUse" x="0" y="0" width="24" height="25">
<path d="M0 0.500002H24V24.5H0V0.500002Z" fill="white"/>
</mask>
<g mask="url(#mask0_245_3488)">
<path d="M13.5562 22.2906C13.5562 22.7341 13.1966 23.0937 12.7531 23.0938H11.2469C10.8034 23.0938 10.4437 22.7341 10.4437 22.2906V21.2524C10.4437 20.9317 10.2268 20.6517 9.91629 20.5716C9.1525 20.3745 8.43084 20.0718 7.76795 19.6798C7.49168 19.5164 7.13983 19.5609 6.91287 19.7879L6.9128 19.7879C6.91276 19.788 6.91268 19.788 6.9126 19.7881C6.91243 19.7883 6.91218 19.7885 6.91184 19.7889C6.91118 19.7895 6.9102 19.7905 6.90889 19.7918L6.85265 19.8481C6.8141 19.8866 6.75863 19.9421 6.69102 20.0097C6.55579 20.1449 6.37195 20.3288 6.17744 20.5233L6.1771 20.5236C6.02688 20.674 5.82266 20.7587 5.60934 20.7587C5.39646 20.7587 5.1922 20.6741 5.042 20.5237C5.04188 20.5235 5.04175 20.5234 5.04163 20.5233C4.69897 20.1806 4.31936 19.801 3.97664 19.4583L3.97636 19.4581C3.82585 19.3078 3.74129 19.1035 3.74129 18.8907C3.74129 18.684 3.82071 18.4859 3.96249 18.337L3.97643 18.3228L3.97664 18.3226C4.17115 18.1281 4.35504 17.9442 4.49028 17.8089L4.71214 17.5871L4.72264 17.5763C4.94044 17.3491 4.981 17.0039 4.82015 16.7319C4.42815 16.0692 4.12555 15.3475 3.92837 14.5836C3.84823 14.2732 3.56819 14.0563 3.24756 14.0563H2.20942C1.76589 14.0563 1.40625 13.6966 1.40625 13.2531V11.7469C1.40625 11.3034 1.76589 10.9438 2.20942 10.9438H3.24756L3.26256 10.9436C3.5769 10.9369 3.84948 10.722 3.92837 10.4164C4.12555 9.65243 4.42814 8.93081 4.82015 8.26797C4.981 7.996 4.94043 7.65079 4.72261 7.42357L4.7121 7.41283L4.69645 7.39717C4.68622 7.38694 4.67116 7.37191 4.65189 7.35264L3.97667 6.67743L3.97636 6.67715C3.82591 6.52687 3.74129 6.32263 3.74129 6.10933C3.74129 5.89654 3.82586 5.69226 3.97636 5.54192L5.04166 4.47663L5.04197 4.47635C5.19222 4.3259 5.39651 4.24128 5.60934 4.24128C5.82261 4.24128 6.02689 4.32594 6.17717 4.47639L6.17744 4.47666C6.37194 4.67116 6.55579 4.85504 6.69102 4.99027C6.75863 5.05789 6.81407 5.11335 6.85262 5.15191C6.8719 5.17119 6.88695 5.18624 6.89718 5.19647C6.9023 5.20159 6.90622 5.20548 6.90886 5.20811C6.91017 5.20942 6.91114 5.21043 6.91181 5.2111L6.9128 5.21209C7.13977 5.43909 7.49169 5.48358 7.76799 5.32017C8.43083 4.92815 9.15249 4.62548 9.91633 4.42836C10.2268 4.34823 10.4437 4.0682 10.4437 3.74755V2.70937C10.4437 2.26586 10.8034 1.90624 11.2469 1.90624H12.7531C13.1966 1.90624 13.5562 2.26589 13.5562 2.70937V3.74755C13.5562 4.0682 13.7732 4.34823 14.0837 4.42836C14.8475 4.62548 15.5692 4.92815 16.232 5.32017L16.245 5.32766C16.5193 5.48213 16.8638 5.43554 17.0872 5.21206L17.0873 5.21202C17.0873 5.21198 17.0874 5.2119 17.0874 5.21182L17.1474 5.15187C17.1859 5.11332 17.2414 5.05785 17.309 4.99024L17.8227 4.47642C17.9731 4.32592 18.1774 4.24128 18.3907 4.24128C18.6034 4.24128 18.8077 4.32589 18.9581 4.47639L18.9584 4.47663C19.1297 4.648 19.3103 4.8286 19.4908 5.00916C19.6714 5.18971 19.8519 5.37026 20.0232 5.54158L20.0236 5.54196C20.1741 5.69224 20.2587 5.89649 20.2587 6.10933C20.2587 6.32269 20.174 6.52689 20.0236 6.67712L20.0233 6.67743C19.8288 6.87194 19.6449 7.05581 19.5097 7.19104C19.4421 7.25865 19.3866 7.31409 19.3481 7.35264C19.3288 7.37192 19.3137 7.38697 19.3035 7.39721C19.2984 7.40232 19.2945 7.40625 19.2919 7.40888L19.2879 7.41286C19.0609 7.63982 19.0165 7.99166 19.1798 8.26794C19.5718 8.93081 19.8745 9.65245 20.0716 10.4164L20.0756 10.4308C20.1606 10.7335 20.4368 10.9438 20.7525 10.9438H21.7906C22.2341 10.9438 22.5938 11.3034 22.5938 11.7469V13.2531C22.5938 13.6966 22.2341 14.0563 21.7906 14.0563H20.7525C20.4318 14.0563 20.1518 14.2732 20.0716 14.5836C19.8745 15.3475 19.5718 16.0692 19.1798 16.732C19.0164 17.0082 19.0609 17.3601 19.2878 17.5871L19.5097 17.8089C19.6449 17.9442 19.8288 18.1281 20.0233 18.3226L20.0236 18.3228C20.174 18.4731 20.2587 18.6773 20.2587 18.8907C20.2587 19.1035 20.1741 19.3078 20.0236 19.4581L20.0233 19.4584C20.009 19.4727 20.0054 19.4762 19.9911 19.4906L19.9383 19.5434C19.9376 19.5441 19.9369 19.5448 19.9362 19.5454C19.9355 19.5461 19.9349 19.5468 19.9342 19.5475C19.9233 19.5584 19.9369 19.5448 19.926 19.5557C19.9224 19.5593 19.9214 19.5602 19.9178 19.5638C19.9032 19.5784 19.9242 19.5575 19.9096 19.572C19.9069 19.5748 19.9082 19.5734 19.9055 19.5761C19.9055 19.5762 19.9015 19.5802 19.9014 19.5803C19.9053 19.5764 19.8962 19.5854 19.8932 19.5885L19.8271 19.6545C19.8138 19.6679 19.7741 19.7076 19.7605 19.7212C19.7016 19.78 19.7525 19.7292 19.6935 19.7882L19.6851 19.7966C19.6844 19.7973 19.6837 19.798 19.683 19.7987L19.6809 19.8008C19.6775 19.8042 19.68 19.8016 19.6767 19.805C19.676 19.8057 19.6753 19.8064 19.6746 19.8071L19.6725 19.8092C19.6693 19.8123 19.6714 19.8103 19.6682 19.8134C19.6496 19.8321 19.6785 19.8032 19.6598 19.8218L19.6219 19.8598C19.6185 19.8632 19.621 19.8606 19.6177 19.864L19.5585 19.9231C19.4984 19.9832 19.5509 19.9307 19.4908 19.9908C19.3691 20.1126 19.3417 20.1399 19.2211 20.2605L19.1545 20.3271C19.1503 20.3314 19.1256 20.3561 19.1214 20.3602C19.1141 20.3676 19.1122 20.3694 19.1049 20.3767L19.0967 20.385C19.0839 20.3978 19.1013 20.3804 19.0885 20.3932L19.0844 20.3973C19.0837 20.398 19.083 20.3987 19.0823 20.3994L19.0802 20.4014C19.0711 20.4105 19.0853 20.3964 19.0761 20.4055C19.0755 20.4062 19.0748 20.4069 19.0741 20.4076L19.0556 20.426C19.0357 20.4459 19.0593 20.4224 19.0393 20.4423C19.0357 20.446 19.0266 20.455 19.023 20.4586C18.9885 20.4932 18.9927 20.489 18.9584 20.5233L18.958 20.5236C18.8078 20.6741 18.6035 20.7587 18.3907 20.7587C18.1773 20.7587 17.9731 20.674 17.8228 20.5236L17.8225 20.5233C17.628 20.3288 17.4442 20.1449 17.309 20.0097C17.2414 19.9421 17.1859 19.8866 17.1474 19.8481C17.1281 19.8288 17.113 19.8138 17.1028 19.8036C17.0977 19.7984 17.0938 19.7945 17.0912 19.7919L17.0872 19.788L17.0872 19.7879C16.8602 19.5609 16.5084 19.5164 16.2321 19.6798C15.5692 20.0718 14.8475 20.3745 14.0837 20.5716C13.7732 20.6517 13.5562 20.9317 13.5562 21.2524V22.2906ZM14.9625 21.781C15.4845 21.6142 15.9874 21.4047 16.467 21.1565C16.5753 21.2649 16.6994 21.3889 16.8281 21.5177C17.2427 21.9326 17.805 22.1649 18.3907 22.1649C18.9759 22.1649 19.5382 21.9326 19.9527 21.5177C19.967 21.5033 19.9706 21.4998 19.985 21.4854C19.9965 21.4739 19.9896 21.4807 20.0012 21.4692L20.0174 21.453C20.0283 21.4421 20.0228 21.4476 20.0337 21.4367L20.0398 21.4306C20.0405 21.4299 20.0412 21.4292 20.0418 21.4285C20.0527 21.4176 20.0391 21.4312 20.05 21.4204C20.0536 21.4167 20.0546 21.4158 20.0582 21.4122L20.1489 21.3215C20.1623 21.3081 20.202 21.2684 20.2155 21.2549C20.2744 21.196 20.2235 21.2469 20.2825 21.1879L20.291 21.1795C20.2917 21.1788 20.2924 21.178 20.2931 21.1773L20.2951 21.1752C20.2985 21.1719 20.296 21.1744 20.2994 21.171C20.3001 21.1703 20.3008 21.1696 20.3015 21.1689C20.3022 21.1682 20.3029 21.1675 20.3036 21.1668L20.3078 21.1626C20.3265 21.1439 20.2975 21.1729 20.3162 21.1542L20.3541 21.1162C20.3575 21.1129 20.355 21.1154 20.3584 21.1121L20.8876 20.5828C20.8912 20.5792 20.888 20.5824 20.8917 20.5787C20.8924 20.578 20.893 20.5774 20.8937 20.5767L20.8958 20.5746C20.9049 20.5655 20.8908 20.5796 20.8999 20.5705C20.9006 20.5698 20.9013 20.5692 20.9019 20.5685L21.0173 20.4531L21.0367 20.4335C21.4396 20.0209 21.6649 19.4669 21.6649 18.8907C21.6649 18.305 21.4326 17.7428 21.0176 17.3282L21.0176 17.3281C20.8889 17.1994 20.7648 17.0754 20.6565 16.967C20.9046 16.4874 21.1142 15.9845 21.281 15.4625H21.7906C23.0107 15.4625 24 14.4733 24 13.2531V11.7469C24 10.5267 23.0107 9.53751 21.7906 9.53751H21.281C21.1142 9.01546 20.9046 8.51259 20.6565 8.033L21.0173 7.67214L21.0367 7.6526C21.4397 7.23995 21.6649 6.68595 21.6649 6.10933C21.6649 5.52408 21.4325 4.96184 21.0177 4.54732C20.8463 4.37595 20.6658 4.19534 20.4852 4.01479C20.3046 3.83422 20.1241 3.65366 19.9528 3.48233L19.9528 3.48236C19.5383 3.06753 18.976 2.83503 18.3907 2.83503C17.8048 2.83503 17.2425 3.06754 16.8279 3.48254C16.6993 3.61118 16.5753 3.73518 16.467 3.84351C15.9874 3.59534 15.4845 3.38579 14.9625 3.219V2.70937C14.9625 1.48918 13.9732 0.499992 12.7531 0.499989H11.2469C10.0267 0.499989 9.03749 1.4892 9.03749 2.70937V3.21904C8.51546 3.38583 8.01256 3.59533 7.53298 3.84351C7.42468 3.7352 7.3007 3.61126 7.17208 3.48264L7.17212 3.4826C6.75754 3.06755 6.19511 2.83503 5.60934 2.83503C5.02404 2.83503 4.4617 3.06747 4.04723 3.48233L2.98231 4.54725C2.56751 4.96172 2.33504 5.524 2.33504 6.10933C2.33504 6.69515 2.56754 7.25754 2.98258 7.6721C3.11121 7.80073 3.23517 7.9247 3.34348 8.033C3.09531 8.51259 2.88581 9.01548 2.71901 9.53751H2.20942C0.989265 9.53751 0 10.5267 0 11.7469V13.2531C0 14.4733 0.989264 15.4625 2.20942 15.4625H2.71905C2.88584 15.9845 3.09531 16.4874 3.34348 16.967C3.23515 17.0753 3.11119 17.1993 2.98255 17.3279C2.56756 17.7425 2.33504 18.3048 2.33504 18.8907C2.33504 19.4761 2.5676 20.0385 2.98258 20.453C3.3252 20.7956 3.70469 21.1751 4.04726 21.5177C4.46178 21.9326 5.02413 22.1649 5.60934 22.1649C6.1949 22.1649 6.75721 21.9326 7.17181 21.5177L7.53298 21.1565C8.01255 21.4046 8.51544 21.6142 9.03749 21.781V22.2906C9.03749 23.5107 10.0267 24.5 11.2469 24.5H12.7531C13.9733 24.5 14.9625 23.5107 14.9625 22.2906V21.781Z" fill="#5B6166"/>
<path d="M15.8153 12.4998C15.8153 14.6054 14.1054 16.3154 11.9997 16.3154C9.89405 16.3154 8.18408 14.6054 8.18408 12.4998C8.18408 10.3942 9.89405 8.68419 11.9997 8.68419C14.1054 8.68419 15.8153 10.3942 15.8153 12.4998ZM17.2216 12.4998C17.2216 9.6175 14.882 7.27794 11.9997 7.27794C9.11739 7.27794 6.77783 9.6175 6.77783 12.4998C6.77783 15.3821 9.11739 17.7217 11.9997 17.7217C14.882 17.7217 17.2216 15.3821 17.2216 12.4998Z" fill="#5B6166"/>
</g>
</g>
<defs>
<clipPath id="clip0_245_3488">
<rect width="24" height="24" fill="white" transform="translate(0 0.5)"/>
</clipPath>
</defs>
</svg>
