<svg width="24" height="25" viewBox="0 0 24 25" fill="none" xmlns="http://www.w3.org/2000/svg">
<path d="M20.0303 10.3751L17.0303 7.37508C16.8888 7.23847 16.6993 7.16287 16.5027 7.16458C16.3061 7.16629 16.1179 7.24516 15.9789 7.38422C15.8398 7.52328 15.761 7.71139 15.7592 7.90803C15.7575 8.10468 15.8331 8.29413 15.9697 8.43558L17.6894 10.1553H7.5C7.30109 10.1553 7.11032 10.2344 6.96967 10.375C6.82902 10.5157 6.75 10.7064 6.75 10.9053C6.75 11.1042 6.82902 11.295 6.96967 11.4357C7.11032 11.5763 7.30109 11.6553 7.5 11.6553H19.5C19.6483 11.6553 19.7933 11.6113 19.9166 11.5289C20.0399 11.4465 20.136 11.3293 20.1928 11.1923C20.2495 11.0553 20.2644 10.9045 20.2354 10.7591C20.2065 10.6136 20.1351 10.48 20.0303 10.3751Z" fill="#33CB33"/>
<path d="M16.4998 13.1553H4.49984C4.35153 13.1553 4.20655 13.1993 4.08325 13.2817C3.95994 13.3641 3.86383 13.4813 3.80708 13.6183C3.75033 13.7553 3.73548 13.9061 3.7644 14.0515C3.79333 14.197 3.86473 14.3306 3.96959 14.4355L6.96959 17.4355C7.11104 17.5721 7.30049 17.6477 7.49714 17.646C7.69379 17.6443 7.8819 17.5654 8.02095 17.4264C8.16001 17.2873 8.23889 17.0992 8.2406 16.9026C8.2423 16.7059 8.16671 16.5165 8.03009 16.375L6.31042 14.6553H16.4998C16.6988 14.6553 16.8895 14.5763 17.0302 14.4356C17.1708 14.295 17.2498 14.1042 17.2498 13.9053C17.2498 13.7064 17.1708 13.5156 17.0302 13.3749C16.8895 13.2343 16.6988 13.1553 16.4998 13.1553Z" fill="#33CB33"/>
</svg>
