<svg width="15" height="15" viewBox="0 0 15 15" fill="none" xmlns="http://www.w3.org/2000/svg">
<g clip-path="url(#clip0_245_5714)">
<path d="M13.0996 4.90508H10.2996C10.1769 4.90508 10.0591 4.9263 9.94961 4.96513V1.75508C9.94961 1.1761 9.47859 0.705078 8.89961 0.705078H6.09961C5.52063 0.705078 5.04961 1.1761 5.04961 1.75508V8.46512C4.94007 8.4263 4.82227 8.40508 4.69961 8.40508H1.89961C1.32063 8.40508 0.849609 8.8761 0.849609 9.45508V14.3551C0.849609 14.5484 1.00632 14.7051 1.19961 14.7051H13.7996C13.9929 14.7051 14.1496 14.5484 14.1496 14.3551V5.95508C14.1496 5.3761 13.6786 4.90508 13.0996 4.90508ZM1.54961 9.45508C1.54961 9.26209 1.70662 9.10508 1.89961 9.10508H4.69961C4.8926 9.10508 5.04961 9.26209 5.04961 9.45508V14.0051H1.54961V9.45508ZM5.74961 1.75508C5.74961 1.56209 5.90662 1.40508 6.09961 1.40508H8.89961C9.0926 1.40508 9.24961 1.56209 9.24961 1.75508V14.0051H5.74961V1.75508ZM13.4496 14.0051H9.94961V5.95508C9.94961 5.76209 10.1066 5.60508 10.2996 5.60508H13.0996C13.2926 5.60508 13.4496 5.76209 13.4496 5.95508V14.0051Z" fill="#33CB33"/>
</g>
<defs>
<clipPath id="clip0_245_5714">
<rect width="14" height="14" fill="white" transform="translate(0.5 0.705078)"/>
</clipPath>
</defs>
</svg>
