<svg width="14" height="14" viewBox="0 0 14 14" fill="none" xmlns="http://www.w3.org/2000/svg">
<g clip-path="url(#clip0_245_5724)">
<path d="M7 13.3052C5.71442 13.3052 4.45772 12.924 3.3888 12.2097C2.31988 11.4955 1.48676 10.4803 0.994786 9.29262C0.502816 8.1049 0.374095 6.79797 0.624899 5.53709C0.875703 4.27622 1.49477 3.11803 2.40381 2.20898C3.31285 1.29994 4.47104 0.680878 5.73192 0.430074C6.99279 0.17927 8.29973 0.307992 9.48745 0.799962C10.6752 1.29193 11.6903 2.12505 12.4046 3.19397C13.1188 4.26289 13.5 5.5196 13.5 6.80518C13.4981 8.52851 12.8127 10.1807 11.5941 11.3993C10.3756 12.6179 8.72334 13.3033 7 13.3052ZM7 1.38851C5.92869 1.38851 4.88143 1.70619 3.99066 2.30139C3.0999 2.89658 2.40563 3.74254 1.99566 4.73231C1.58568 5.72208 1.47841 6.81119 1.68742 7.86192C1.89642 8.91265 2.41231 9.87781 3.16984 10.6353C3.92738 11.3929 4.89253 11.9088 5.94326 12.1178C6.99399 12.3268 8.08311 12.2195 9.07287 11.8095C10.0626 11.3996 10.9086 10.7053 11.5038 9.81452C12.099 8.92375 12.4167 7.87649 12.4167 6.80518C12.4151 5.36907 11.8439 3.99224 10.8284 2.97676C9.81294 1.96128 8.43611 1.39009 7 1.38851Z" fill="#33CB33"/>
<path d="M7.54036 8.43006H6.45703V8.0276C6.44903 7.64541 6.54346 7.26805 6.73053 6.93468C6.9176 6.60131 7.19049 6.32408 7.52086 6.13177C7.721 6.02154 7.88115 5.85086 7.97844 5.64413C8.07573 5.43739 8.10516 5.20519 8.06253 4.98073C8.02032 4.76688 7.91533 4.57046 7.76096 4.41657C7.60659 4.26269 7.40984 4.15831 7.19586 4.11677C7.03971 4.08787 6.87912 4.09365 6.72545 4.1337C6.57178 4.17376 6.42879 4.24711 6.30662 4.34856C6.18445 4.45001 6.08607 4.57708 6.01846 4.72077C5.95085 4.86446 5.91565 5.02126 5.91536 5.18006H4.83203C4.83217 4.79792 4.93337 4.42261 5.12537 4.0922C5.31738 3.7618 5.59335 3.48805 5.9253 3.29874C6.25725 3.10942 6.63337 3.01126 7.0155 3.01423C7.39763 3.01719 7.77218 3.12117 8.10116 3.31561C8.43013 3.51006 8.70183 3.78805 8.88868 4.12139C9.07554 4.45474 9.17091 4.83157 9.16512 5.21367C9.15932 5.59577 9.05258 5.96954 8.8557 6.29706C8.65883 6.62459 8.37883 6.89422 8.04411 7.0786C7.88418 7.17859 7.75342 7.31895 7.66498 7.48555C7.57655 7.65215 7.53357 7.83911 7.54036 8.0276V8.43006Z" fill="#33CB33"/>
<path d="M7.54036 9.51343H6.45703V10.5968H7.54036V9.51343Z" fill="#33CB33"/>
</g>
<defs>
<clipPath id="clip0_245_5724">
<rect width="13" height="13" fill="white" transform="translate(0.5 0.305176)"/>
</clipPath>
</defs>
</svg>
