<svg width="29" height="30" viewBox="0 0 29 30" fill="none" xmlns="http://www.w3.org/2000/svg">
<g clip-path="url(#clip0_245_3532)">
<path d="M23.8556 18.8402V13.3302C23.8556 9.23742 21.2363 5.66858 17.63 4.33552C17.6721 4.12501 17.6954 3.90989 17.6954 3.69469C17.6955 1.93132 16.2642 0.5 14.5008 0.5C12.7374 0.5 11.3061 1.93132 11.3061 3.69469C11.3061 3.9052 11.3295 4.11564 11.3669 4.31677C10.1274 4.75646 8.98143 5.45338 8.00386 6.39822C6.16097 8.17565 5.14598 10.5658 5.14598 13.129V18.8402C5.14598 19.0413 4.98226 19.2097 4.77644 19.2097C3.05048 19.2097 1.57706 20.51 1.41802 22.1659C1.32913 23.0873 1.63322 24.0041 2.2553 24.687C2.8727 25.3652 3.75677 25.7581 4.67817 25.7581H10.3192C10.553 27.8583 12.3398 29.5001 14.5008 29.5001C16.6618 29.5001 18.4486 27.8583 18.6824 25.7581H24.3234C25.2449 25.7581 26.1289 25.3652 26.7463 24.687C27.3637 24.0041 27.6678 23.0873 27.5836 22.1659C27.4245 20.51 25.9465 19.2097 24.2252 19.2097C24.0193 19.2096 23.8556 19.0459 23.8556 18.8402ZM14.5008 2.37093C15.2304 2.37093 15.8245 2.96497 15.8245 3.69461C15.8245 3.75538 15.8151 3.81155 15.8057 3.87232C15.4877 3.82553 15.1649 3.7928 14.8421 3.78343C14.2855 3.76468 13.7383 3.80217 13.1957 3.877C13.1863 3.81623 13.177 3.76007 13.177 3.6993C13.1771 2.96497 13.7712 2.37093 14.5008 2.37093ZM14.5008 27.629C13.3736 27.629 12.4287 26.8244 12.2088 25.7581H16.7927C16.573 26.8245 15.6281 27.629 14.5008 27.629ZM25.7219 22.3436C25.7594 22.7458 25.6331 23.134 25.3665 23.4287C25.0905 23.7234 24.7256 23.887 24.3234 23.887H4.67825C4.27598 23.887 3.91119 23.7233 3.63983 23.4287C3.36855 23.134 3.24224 22.7458 3.27966 22.3436C3.34512 21.6373 4.00469 21.0806 4.77644 21.0806C6.01131 21.0806 7.01692 20.075 7.01692 18.8402V13.129C7.01692 11.0803 7.83076 9.16728 9.30418 7.74533C10.7121 6.38423 12.5457 5.64514 14.5008 5.64514C14.5944 5.64514 14.6832 5.64514 14.7768 5.64983C18.7479 5.79012 21.9847 9.23742 21.9847 13.3302V18.8402C21.9847 20.075 22.9903 21.0806 24.2252 21.0806C24.9969 21.0806 25.6518 21.6373 25.7219 22.3436Z" fill="#5B6166"/>
</g>
<defs>
<clipPath id="clip0_245_3532">
<rect width="29" height="29" fill="white" transform="translate(0 0.5)"/>
</clipPath>
</defs>
</svg>
