<svg width="20" height="21" viewBox="0 0 20 21" fill="none" xmlns="http://www.w3.org/2000/svg">
<g clip-path="url(#clip0_245_101)">
<path d="M10.0002 0.821777C7.05905 0.821777 4.70611 3.17472 4.70611 6.11589V8.46884C3.70611 8.46884 2.94141 9.23354 2.94141 10.2335V17.8806C2.94141 18.8806 3.70611 19.6453 4.70611 19.6453H15.2943C16.2943 19.6453 17.0591 18.8806 17.0591 17.8806V10.2335C17.0591 9.23354 16.2943 8.46884 15.2943 8.46884V6.11589C15.2943 3.17472 12.9414 0.821777 10.0002 0.821777ZM15.8826 10.2335V17.8806C15.8826 18.2335 15.6473 18.4688 15.2943 18.4688H4.70611C4.35317 18.4688 4.11788 18.2335 4.11788 17.8806V10.2335C4.11788 9.8806 4.35317 9.64531 4.70611 9.64531H5.29435H14.7061H15.2943C15.6473 9.64531 15.8826 9.8806 15.8826 10.2335ZM5.88258 8.46884V6.11589C5.88258 3.82178 7.70611 1.99825 10.0002 1.99825C12.2943 1.99825 14.1179 3.82178 14.1179 6.11589V8.46884H5.88258Z" fill="#589C05"/>
<path d="M10.0001 11.4099C9.00006 11.4099 8.23535 12.1746 8.23535 13.1746C8.23535 13.9393 8.70594 14.5864 9.41182 14.8217V16.1158C9.41182 16.4687 9.64712 16.704 10.0001 16.704C10.353 16.704 10.5883 16.4687 10.5883 16.1158V14.8217C11.2942 14.5864 11.7648 13.9393 11.7648 13.1746C11.7648 12.1746 11.0001 11.4099 10.0001 11.4099ZM10.0001 13.7629C9.64712 13.7629 9.41182 13.5276 9.41182 13.1746C9.41182 12.8217 9.64712 12.5864 10.0001 12.5864C10.353 12.5864 10.5883 12.8217 10.5883 13.1746C10.5883 13.5276 10.353 13.7629 10.0001 13.7629Z" fill="#589C05"/>
</g>
<defs>
<clipPath id="clip0_245_101">
<rect width="20" height="20" fill="white" transform="translate(0 0.233643)"/>
</clipPath>
</defs>
</svg>
