<svg width="14" height="14" viewBox="0 0 14 14" fill="none" xmlns="http://www.w3.org/2000/svg">
<g clip-path="url(#clip0_245_5711)">
<path d="M11.0051 5.06813V4.29679C11.0051 3.29118 10.5834 2.32676 9.83281 1.61568C9.08223 0.904605 8.06423 0.505127 7.00275 0.505127C5.94127 0.505127 4.92326 0.904605 4.17269 1.61568C3.42211 2.32676 3.00043 3.29118 3.00043 4.29679V5.06813C2.4912 5.27868 2.05777 5.62524 1.75314 6.06545C1.44851 6.50566 1.28589 7.02042 1.28516 7.54679V10.7968C1.28606 11.5148 1.58755 12.2032 2.12348 12.7109C2.65941 13.2186 3.38603 13.5043 4.14395 13.5051H9.86155C10.6195 13.5043 11.3461 13.2186 11.882 12.7109C12.418 12.2032 12.7194 11.5148 12.7203 10.7968V7.54679C12.7196 7.02042 12.557 6.50566 12.2524 6.06545C11.9477 5.62524 11.5143 5.27868 11.0051 5.06813ZM4.14395 4.29679C4.14395 3.5785 4.44515 2.88962 4.98128 2.38171C5.5174 1.8738 6.24455 1.58846 7.00275 1.58846C7.76095 1.58846 8.4881 1.8738 9.02422 2.38171C9.56035 2.88962 9.86155 3.5785 9.86155 4.29679V4.83846H4.14395V4.29679ZM11.5768 10.7968C11.5768 11.2278 11.3961 11.6411 11.0744 11.9458C10.7528 12.2506 10.3165 12.4218 9.86155 12.4218H4.14395C3.68903 12.4218 3.25275 12.2506 2.93107 11.9458C2.60939 11.6411 2.42867 11.2278 2.42867 10.7968V7.54679C2.42867 7.11582 2.60939 6.70249 2.93107 6.39775C3.25275 6.093 3.68903 5.92179 4.14395 5.92179H9.86155C10.3165 5.92179 10.7528 6.093 11.0744 6.39775C11.3961 6.70249 11.5768 7.11582 11.5768 7.54679V10.7968Z" fill="#33CB33"/>
<path d="M7.00145 8.08838C6.84981 8.08838 6.70438 8.14545 6.59715 8.24703C6.48993 8.34861 6.42969 8.48639 6.42969 8.63005V9.71338C6.42969 9.85704 6.48993 9.99481 6.59715 10.0964C6.70438 10.198 6.84981 10.255 7.00145 10.255C7.15309 10.255 7.29852 10.198 7.40574 10.0964C7.51297 9.99481 7.57321 9.85704 7.57321 9.71338V8.63005C7.57321 8.48639 7.51297 8.34861 7.40574 8.24703C7.29852 8.14545 7.15309 8.08838 7.00145 8.08838Z" fill="#33CB33"/>
</g>
<defs>
<clipPath id="clip0_245_5711">
<rect width="13.7222" height="13" fill="white" transform="translate(0.140625 0.505127)"/>
</clipPath>
</defs>
</svg>
