<svg width="64" height="64" viewBox="0 0 64 64" fill="none" xmlns="http://www.w3.org/2000/svg">
<path d="M53.9202 10.0798C48.0651 4.22463 40.2804 1 32 1C23.7196 1 15.9349 4.22463 10.0798 10.0798C4.22463 15.9349 1 23.7196 1 32C1 36.8821 2.10275 41.5547 4.27763 45.8879C6.35112 50.019 9.38525 53.7015 13.0522 56.5371C13.2343 56.678 13.4496 56.7461 13.6632 56.7461C13.9622 56.7461 14.258 56.6128 14.455 56.3579C14.7929 55.921 14.7126 55.2929 14.2756 54.9551C7.37475 49.6182 3.30988 41.6611 3.0185 33L28.3808 32.9999C28.8197 34.5865 30.2755 35.7552 31.9999 35.7552C33.7243 35.7552 35.18 34.5865 35.619 32.9999L60.9811 33C60.6956 41.4074 56.8206 49.2131 50.2469 54.5412C49.8177 54.889 49.7519 55.5186 50.0996 55.9478C50.4473 56.3769 51.0771 56.4426 51.5061 56.095C58.8106 50.1745 63 41.3923 63 32C63 23.7196 59.7754 15.9349 53.9202 10.0798ZM60.9809 31H50.4142C50.273 28.3704 49.5785 25.8855 48.4451 23.6597L57.5945 18.3774C59.6186 22.1647 60.8259 26.4509 60.9809 31ZM56.5915 16.6471L47.4417 21.9298C46.0416 19.79 44.2096 17.9579 42.0699 16.5578L47.3524 7.40825C51.0864 9.74775 54.2519 12.9131 56.5915 16.6471ZM23.6599 15.5545L18.3776 6.40538C22.165 4.3815 26.451 3.17425 31 3.01925V13.5855C28.3704 13.7265 25.8855 14.4211 23.6599 15.5545ZM32.9999 3.01912C37.5487 3.17412 41.8349 4.38125 45.6222 6.40525L40.3399 15.5545C38.1141 14.4211 35.6294 13.7266 32.9999 13.5854V3.01912ZM16.6474 7.40837L21.9299 16.5579C19.7902 17.958 17.9581 19.7901 16.558 21.9299L7.40837 16.6474C9.748 12.9132 12.9134 9.74788 16.6474 7.40837ZM15.5548 23.6597C14.4214 25.8855 13.7269 28.3704 13.5856 30.9999H3.01912C3.17412 26.4509 4.38138 22.1647 6.40538 18.3774L15.5548 23.6597ZM28.3809 30.9999H15.5895C16.1081 22.3977 23.2697 15.5579 31.9999 15.5579C40.7301 15.5579 47.8916 22.3977 48.4104 30.9999H35.6191C35.536 30.6994 35.4164 30.4141 35.2654 30.1488L39.3672 26.0469C39.7577 25.6562 39.7577 25.0233 39.3672 24.6326C38.9766 24.2423 38.3436 24.2423 37.953 24.6326L33.8511 28.7345C33.3042 28.4233 32.6729 28.2446 32 28.2446C30.2756 28.2445 28.8199 29.4132 28.3809 30.9999ZM32 33.7552C31.0321 33.7552 30.2446 32.9677 30.2446 31.9999C30.2446 31.032 31.0321 30.2445 32 30.2445C32.9679 30.2445 33.7554 31.032 33.7554 31.9999C33.7554 32.9677 32.9679 33.7552 32 33.7552ZM30.0889 46.7615H25.6279C25.0756 46.7615 24.6279 47.2093 24.6279 47.7615V62C24.6279 62.5522 25.0756 63 25.6279 63H30.0889C30.6411 63 31.0889 62.5522 31.0889 62V47.7615C31.0889 47.2093 30.6411 46.7615 30.0889 46.7615ZM29.0889 61H26.6279V48.7615H29.0889V61ZM38.3722 48.6208H33.9113C33.359 48.6208 32.9113 49.0685 32.9113 49.6208V62C32.9113 62.5522 33.359 63 33.9113 63H38.3722C38.9245 63 39.3722 62.5522 39.3722 62V49.6208C39.3722 49.0685 38.9245 48.6208 38.3722 48.6208ZM37.3722 61H34.9113V50.6208H37.3722V61ZM46.6553 40.9098H42.1942C41.642 40.9098 41.1942 41.3575 41.1942 41.9098V61.9999C41.1942 62.5521 41.642 62.9999 42.1942 62.9999H46.6553C47.2075 62.9999 47.6553 62.5521 47.6553 61.9999V41.9098C47.6553 41.3575 47.2075 40.9098 46.6553 40.9098ZM45.6553 60.9999H43.1942V42.9098H45.6553V60.9999ZM21.8056 52.2845H17.3446C16.7924 52.2845 16.3446 52.7323 16.3446 53.2845V61.9999C16.3446 62.5521 16.7924 62.9999 17.3446 62.9999H21.8056C22.3579 62.9999 22.8056 62.5521 22.8056 61.9999V53.2845C22.8056 52.7323 22.3579 52.2845 21.8056 52.2845ZM20.8056 60.9999H18.3446V54.2845H20.8056V60.9999ZM35.841 42.2151L41.7637 36.2417C41.2325 36.2596 40.779 35.8636 40.7323 35.3311C40.684 34.781 41.0909 34.2959 41.6411 34.2475L44.3375 34.011C44.6364 33.9844 44.9309 34.094 45.1404 34.3086C45.3499 34.5231 45.452 34.8204 45.4188 35.1184L45.118 37.8085C45.0609 38.3196 44.628 38.6975 44.1255 38.6975C44.0884 38.6975 44.0509 38.6954 44.0132 38.6911C43.5057 38.6344 43.1306 38.2072 43.1253 37.7095L36.8281 44.0604C36.5622 44.3284 36.1683 44.424 35.8095 44.3075L28.0548 41.7914L20.19 47.9154C20.0074 48.0575 19.7911 48.1264 19.5764 48.1264C19.2785 48.1264 18.9839 47.9939 18.7866 47.7407C18.4474 47.305 18.5255 46.6766 18.9613 46.3372L27.2445 39.8874C27.5064 39.6836 27.852 39.6229 28.1675 39.7253L35.841 42.2151Z" fill="#33CB33"/>
</svg>
